<svg id="Layer_1" data-name="Layer 1" xmlns="http://www.w3.org/2000/svg" viewBox="0 0 500 500"><defs><style>.cls-1{fill:#fcd32b;}.cls-2{fill:#efad0a;}.cls-3{fill:none;stroke-width:15px;}.cls-3,.cls-4{stroke:#000;stroke-linecap:round;stroke-linejoin:round;}.cls-4{stroke-width:3px;}</style></defs><title>アートボード 1</title><circle class="cls-1" cx="250" cy="250" r="169"/><path class="cls-2" d="M250,383A168.92,168.92,0,0,1,82,232,168.88,168.88,0,0,0,232.2,417.9c92.9,9.8,176.1-57.3,185.9-150.2a164.8,164.8,0,0,0,0-35.8A169,169,0,0,1,250,383Z"/><path class="cls-3" d="M164.6,257.5s48.1,53.4,106.8,0"/><line class="cls-3" x1="250" y1="48.8" x2="250" y2="7.7"/><line class="cls-3" x1="337.2" y1="57.3" x2="349.9" y2="29.3"/><line class="cls-3" x1="150.1" y1="470.7" x2="162.8" y2="442.7"/><line class="cls-3" x1="447.9" y1="175.4" x2="476.7" y2="164.6"/><line class="cls-3" x1="23.3" y1="335.4" x2="52.1" y2="324.6"/><line class="cls-3" x1="442.7" y1="337.2" x2="470.7" y2="349.9"/><line class="cls-3" x1="29.3" y1="150.1" x2="57.3" y2="162.8"/><line class="cls-3" x1="324.6" y1="447.9" x2="335.4" y2="476.7"/><line class="cls-3" x1="164.6" y1="23.3" x2="175.4" y2="52.1"/><line class="cls-3" x1="250" y1="451.2" x2="250" y2="492.3"/><line class="cls-3" x1="451.2" y1="250" x2="492.3" y2="250"/><line class="cls-3" x1="48.8" y1="250" x2="7.8" y2="250"/><line class="cls-3" x1="392.3" y1="392.3" x2="421.3" y2="421.3"/><line class="cls-3" x1="107.7" y1="107.7" x2="78.7" y2="78.7"/><line class="cls-3" x1="107.7" y1="392.3" x2="78.7" y2="421.3"/><line class="cls-3" x1="392.3" y1="107.7" x2="421.3" y2="78.7"/><ellipse class="cls-4" cx="183.6" cy="164.6" rx="11.4" ry="29.1"/><ellipse class="cls-4" cx="244.7" cy="162.8" rx="11.4" ry="29.1"/></svg>